<svg xmlns="http://www.w3.org/2000/svg" width="32" height="32">
    <path style="stroke:none;fill-rule:nonzero;fill:#000;fill-opacity:1" d="M10.352 16.137c0 .761-.54 1.343-1.223 1.343-.512 0-.89-.324-.89-.937 0-.762.527-1.375 1.206-1.375.516 0 .907.355.907.969Zm-5.88-3.032h-.261a.178.178 0 0 0-.176.168l-.242 1.672.457-.02c.61 0 1.082-.093 1.195-.886.125-.84-.343-.934-.972-.934Zm15.778 0H20c-.102 0-.168.063-.18.168l-.23 1.672.445-.02c.719 0 1.219-.187 1.219-1.124-.004-.664-.531-.696-1.004-.696ZM32 5v22c0 1.656-1.195 3-2.668 3H2.668C1.195 30 0 28.656 0 27V5c0-1.656 1.195-3 2.668-3h26.664C30.805 2 32 3.344 32 5ZM7.129 13.46c0-1.312-.902-1.75-1.93-1.75H2.977c-.137 0-.278.126-.29.298l-.91 6.379c-.015.125.067.25.18.25h1.055c.148 0 .289-.18.304-.356l.25-1.664c.055-.449.735-.293 1-.293 1.59 0 2.563-1.062 2.563-2.863Zm4.676.552H10.75c-.21 0-.223.343-.234.511-.32-.53-.79-.625-1.317-.625-1.36 0-2.398 1.344-2.398 2.829 0 1.218.676 2.011 1.761 2.011.5 0 1.122-.308 1.473-.746a1.689 1.689 0 0 0-.058.39c0 .141.058.25.18.25h.952c.153 0 .282-.183.309-.359l.566-4.015c.016-.121-.066-.246-.18-.246Zm2.25 6.12 3.539-5.788c.027-.031.027-.063.027-.106 0-.105-.082-.218-.176-.218H16.38a.307.307 0 0 0-.25.156l-1.473 2.437-.613-2.343c-.043-.137-.164-.25-.305-.25H12.7c-.094 0-.176.113-.176.218 0 .075 1.082 3.551 1.176 3.88-.148.237-1.136 1.788-1.136 1.976 0 .113.082.199.175.199h1.067a.31.31 0 0 0 .25-.16Zm8.851-6.671c0-1.313-.902-1.75-1.93-1.75h-2.203c-.152 0-.289.125-.308.297l-.899 6.375c-.011.125.075.25.18.25h1.137c.113 0 .195-.094.222-.203l.25-1.813c.055-.449.735-.293 1-.293 1.579 0 2.551-1.062 2.551-2.863Zm4.676.55h-1.055c-.21 0-.222.344-.238.512-.305-.53-.777-.625-1.316-.625-1.364 0-2.403 1.344-2.403 2.829 0 1.218.68 2.011 1.762 2.011.52 0 1.14-.308 1.473-.746-.016.094-.055.297-.055.39 0 .141.055.25.18.25h.96c.15 0 .278-.183.305-.359l.567-4.015c.015-.121-.067-.246-.18-.246Zm2.64-2.081c0-.125-.081-.22-.179-.22h-1.027c-.082 0-.164.08-.176.173l-.902 6.5-.016.031c0 .11.082.219.195.219h.918c.137 0 .277-.184.285-.36l.903-6.324Zm-5 3.238c-.679 0-1.206.605-1.206 1.375 0 .605.39.937.902.937.664 0 1.203-.574 1.203-1.343.008-.614-.383-.969-.898-.969Zm0 0"/>
</svg>
