<svg xmlns="http://www.w3.org/2000/svg" width="64" height="64">
    <path style="stroke:none;fill-rule:nonzero;fill:#000;fill-opacity:1" d="m43.309 30.691 4.183-4.183-10-10-4.183 4.183L22.266 9.68a5.347 5.347 0 0 0-7.547 0l-5.067 5.066a5.347 5.347 0 0 0 0 7.547l11.016 11.016L8 46v10h10l12.691-12.691L41.707 54.32c2.531 2.532 5.945 1.602 7.547 0l5.066-5.066a5.347 5.347 0 0 0 0-7.547ZM24.48 29.52 13.441 18.508l5.04-5.067 3.386 3.387L18.72 20l3.761 3.762 3.172-3.176 3.868 3.867Zm21.012 21.039L34.48 39.547l5.067-5.067 3.867 3.868-3.176 3.172L44 45.28l3.172-3.176 3.387 3.387ZM55.227 18.773a2.66 2.66 0 0 0 0-3.761l-6.239-6.239C47.734 7.52 46 8 45.227 8.773l-4.88 4.88 10 10Zm0 0"/>
</svg>
