<svg xmlns="http://www.w3.org/2000/svg" width="64" height="64">
    <path style="stroke:none;fill-rule:nonzero;fill:#000;fill-opacity:1" d="M63.625.57A1.591 1.591 0 0 0 62.402 0H60.77C44.645-.008 31.902-.008 22.523 2.234c-5.039 1.207-8.937 3.028-11.914 5.563-3.21 2.742-5.398 6.328-6.695 10.973-.86 3.085-1.266 8.656.434 14.199.629 2.05 1.609 3.98 2.914 5.758C3.372 44.824.008 52.852.008 62.402a1.6 1.6 0 0 0 1.597 1.602c.883 0 1.602-.719 1.602-1.602 0-14.734 8.73-25.668 13.934-30.867 3.734-3.734 7.953-6.887 12.21-9.113 3.962-2.074 7.747-3.215 10.657-3.215.887 0 1.601-.719 1.601-1.602 0-.882-.714-1.597-1.601-1.597-3.469 0-7.664 1.238-12.14 3.582-4.536 2.379-9.028 5.726-12.99 9.687a57.357 57.357 0 0 0-5.675 6.625 15.959 15.959 0 0 1-1.789-3.863C5.813 26.816 6.402 21.785 7 19.637 11.578 3.238 28.96 3.195 60.496 3.207c-3.762 20.121-10.77 33.145-20.851 38.723-9.352 5.175-18.625 2.351-22.18.894a17.031 17.031 0 0 1-2.235-1.117 1.602 1.602 0 0 0-2.195.555c-.45.758-.2 1.742.559 2.191.87.52 1.765.969 2.664 1.336a31.755 31.755 0 0 0 9.168 2.2c.875.074 1.742.109 2.601.109 4.703 0 9.118-1.13 13.168-3.368 5.149-2.847 9.606-7.484 13.246-13.773 4.27-7.375 7.48-17.16 9.547-29.074a1.625 1.625 0 0 0-.351-1.305Zm0 0"/>
</svg>
